<?xml version="1.0" encoding="UTF-8" standalone="no"?>
<!-- Created with Inkscape (http://www.inkscape.org/) -->

<svg
   xmlns:dc="http://purl.org/dc/elements/1.1/"
   xmlns:cc="http://creativecommons.org/ns#"
   xmlns:rdf="http://www.w3.org/1999/02/22-rdf-syntax-ns#"
   xmlns:svg="http://www.w3.org/2000/svg"
   xmlns="http://www.w3.org/2000/svg"
   xmlns:sodipodi="http://sodipodi.sourceforge.net/DTD/sodipodi-0.dtd"
   xmlns:inkscape="http://www.inkscape.org/namespaces/inkscape"
   width="744.09448"
   height="1052.3622"
   id="svg2"
   version="1.1"
   inkscape:version="0.48.4 r9939"
   sodipodi:docname="useless.svg">
  <defs
     id="defs4" />
  <sodipodi:namedview
     id="base"
     pagecolor="#ffffff"
     bordercolor="#666666"
     borderopacity="1.0"
     inkscape:pageopacity="0.0"
     inkscape:pageshadow="2"
     inkscape:zoom="2.0253472"
     inkscape:cx="374.92747"
     inkscape:cy="303.54"
     inkscape:document-units="mm"
     inkscape:current-layer="layer1"
     showgrid="false"
     showguides="true"
     inkscape:guide-bbox="true"
     inkscape:window-width="1231"
     inkscape:window-height="776"
     inkscape:window-x="49"
     inkscape:window-y="24"
     inkscape:window-maximized="1"
     units="mm"
     objecttolerance="20"
     guidetolerance="20"
     gridtolerance="10"
     inkscape:snap-global="true"
     inkscape:snap-page="true"
     inkscape:snap-center="true"
     inkscape:snap-object-midpoints="true"
     inkscape:object-nodes="true"
     inkscape:snap-smooth-nodes="true"
     inkscape:object-paths="true"
     inkscape:snap-nodes="true"
     inkscape:snap-bbox="true"
     inkscape:bbox-nodes="true"
     inkscape:snap-intersection-paths="true"
     inkscape:bbox-paths="true"
     inkscape:snap-bbox-edge-midpoints="true" />
  <metadata
     id="metadata7">
    <rdf:RDF>
      <cc:Work
         rdf:about="">
        <dc:format>image/svg+xml</dc:format>
        <dc:type
           rdf:resource="http://purl.org/dc/dcmitype/StillImage" />
        <dc:title />
      </cc:Work>
    </rdf:RDF>
  </metadata>
  <g
     inkscape:label="Layer 1"
     inkscape:groupmode="layer"
     id="layer1"
     transform="translate(0,-2.5390623e-6)">
    <g
       id="g2998"
       inkscape:transform-center-x="-130.17717"
       inkscape:transform-center-y="35.974051"
       transform="translate(2,0)">
      <path
         sodipodi:nodetypes="ccccc"
         inkscape:transform-center-y="41.416254"
         inkscape:transform-center-x="-126.26907"
         inkscape:connector-curvature="0"
         id="path3867"
         d="m 373.34375,651.5625 -258.01633,0 0,97.09375 202.01633,0 z"
         style="fill:none;stroke:#000000;stroke-width:0.35433069;stroke-linecap:butt;stroke-linejoin:miter;stroke-miterlimit:4;stroke-opacity:1;stroke-dasharray:none" />
      <path
         sodipodi:nodetypes="cc"
         style="fill:none;stroke:#000000;stroke-width:0.35433069;stroke-linecap:butt;stroke-linejoin:miter;stroke-miterlimit:4;stroke-opacity:1;stroke-dasharray:1.06299216, 1.06299216;stroke-dashoffset:0"
         d="m 366.49589,660.41259 -251.14013,0"
         id="path3854"
         inkscape:connector-curvature="0" />
    </g>
    <rect
       y="651.55841"
       x="104.04001"
       height="194.52756"
       width="4.9606299"
       id="rect2996"
       style="fill:none;stroke:#000000;stroke-width:0.35433069;stroke-linecap:butt;stroke-linejoin:miter;stroke-miterlimit:4;stroke-opacity:1;stroke-dasharray:none" />
    <rect
       style="fill:none;stroke:#000000;stroke-width:0.35433069;stroke-linecap:butt;stroke-linejoin:miter;stroke-miterlimit:4;stroke-opacity:1;stroke-dasharray:none"
       id="rect2995"
       width="4.9606299"
       height="194.52756"
       x="640.85431"
       y="651.55841" />
    <path
       style="fill:none;stroke:#ff0000;stroke-width:1;stroke-linecap:butt;stroke-linejoin:miter;stroke-miterlimit:4;stroke-opacity:1;stroke-dasharray:2, 1, 0.5, 1;stroke-dashoffset:0"
       d="m 393.05528,757.17631 c 6.18861,0 12.37721,0 18.56582,0 m -9.27048,-10.08648 0,19.34833"
       id="path3811"
       inkscape:connector-curvature="0"
       sodipodi:nodetypes="cccc" />
    <path
       sodipodi:type="arc"
       style="fill:none;stroke:#ff0000;stroke-width:0.99921262;stroke-miterlimit:4;stroke-dasharray:none;stroke-dashoffset:0"
       id="path3000"
       sodipodi:cx="425.17856"
       sodipodi:cy="725.93359"
       sodipodi:rx="3.0357144"
       sodipodi:ry="3.0357144"
       d="m 428.21427,725.93359 c 0,1.67658 -1.35913,3.03572 -3.03571,3.03572 -1.67658,0 -3.03572,-1.35914 -3.03572,-3.03572 0,-1.67658 1.35914,-3.03571 3.03572,-3.03571 1.67658,0 3.03571,1.35913 3.03571,3.03571 z"
       transform="translate(-22.827938,31.242716)" />
    <g
       id="g3808"
       inkscape:transform-center-x="94.372163"
       inkscape:transform-center-y="-33.679871"
       style="stroke:#999999">
      <path
         inkscape:transform-center-x="40.153566"
         inkscape:connector-curvature="0"
         id="path3773"
         d="m 402.38455,780.47318 c 12.86671,0 23.28125,-10.44579 23.28125,-23.3125 0,-12.86672 -10.41454,-23.28125 -23.28125,-23.28125 l -89.21874,8.84375 c -7.97443,0 -14.4375,6.46307 -14.4375,14.4375 0,7.97442 6.46307,14.4375 14.4375,14.4375 l 89.21874,8.875 z m -0.34375,-12.40625 c -6.01751,0 -10.875,-4.88874 -10.875,-10.90625 0,-6.01751 4.85749,-10.875 10.875,-10.875 6.01751,0 10.90625,4.85749 10.90625,10.875 0,6.01751 -4.88874,10.90625 -10.90625,10.90625 z m -39.8125,-8.84375 c -1.12522,0 -2.0625,-0.93727 -2.0625,-2.0625 0,-1.12523 0.93728,-2.03125 2.0625,-2.03125 1.12523,0 2.03125,0.90602 2.03125,2.03125 0,1.12523 -0.90602,2.0625 -2.03125,2.0625 z m -9.75,0 c -1.12522,0 -2.03125,-0.93727 -2.03125,-2.0625 0,-1.12523 0.90603,-2.03125 2.03125,-2.03125 1.12523,0 2.03125,0.90602 2.03125,2.03125 0,1.12523 -0.90602,2.0625 -2.03125,2.0625 z m -9.75,0 c -1.12522,0 -2.03125,-0.93727 -2.03125,-2.0625 0,-1.12523 0.90603,-2.03125 2.03125,-2.03125 1.12523,0 2.03125,0.90602 2.03125,2.03125 0,1.12523 -0.90602,2.0625 -2.03125,2.0625 z m -9.74999,0 c -1.12523,0 -2.03125,-0.93727 -2.03125,-2.0625 0,-1.12523 0.90602,-2.03125 2.03125,-2.03125 1.12522,0 2.03125,0.90602 2.03125,2.03125 0,1.12523 -0.90603,2.0625 -2.03125,2.0625 z m -9.75,0 c -1.12523,0 -2.03125,-0.93727 -2.03125,-2.0625 0,-1.12523 0.90602,-2.03125 2.03125,-2.03125 1.12523,0 2.0625,0.90602 2.0625,2.03125 0,1.12523 -0.93727,2.0625 -2.0625,2.0625 z m -9.71875,0 c -1.12523,0 -2.0625,-0.93727 -2.0625,-2.0625 0,-1.12523 0.93727,-2.03125 2.0625,-2.03125 1.12523,0 2.03125,0.90602 2.03125,2.03125 0,1.12523 -0.90602,2.0625 -2.03125,2.0625 z"
         style="fill:none;stroke:#999999;stroke-width:0.64638781999999995;stroke-miterlimit:4;stroke-dashoffset:0" />
      <path
         style="fill:none;stroke:#999999;stroke-width:0.35433072;stroke-linecap:butt;stroke-linejoin:miter;stroke-miterlimit:4;stroke-opacity:1;stroke-dasharray:none;stroke-dashoffset:0"
         d="m 373.53011,774.26151 -136.38725,0 c -98.66381,0 -24.26292,-107.88784 60.90104,-107.88784 l 6.99322,18.80032 c -44.44742,0 -65.34895,54.5846 -18.91673,54.5846 l 87.40972,0 z"
         id="path2993-6"
         inkscape:connector-curvature="0"
         sodipodi:nodetypes="ccccccc"
         inkscape:transform-center-x="90.979316"
         inkscape:transform-center-y="-71.384358" />
    </g>
    <g
       id="g3002">
      <g
         id="g2997">
        <g
           id="g3846"
           transform="translate(14.351288,251.31876)"
           style="fill:none">
          <rect
             y="497.67645"
             x="95.003677"
             height="97.086617"
             width="531.14172"
             id="rect2985"
             style="fill:none;fill-rule:evenodd;stroke:#000000;stroke-width:0.35433071999999999;stroke-linecap:butt;stroke-linejoin:miter;stroke-miterlimit:4;stroke-opacity:1;stroke-dasharray:none" />
          <path
             inkscape:connector-curvature="0"
             id="path3040"
             d="m 95.004365,585.90481 531.140355,0"
             style="fill:none;stroke:#000000;stroke-width:0.35433071999999999;stroke-linecap:butt;stroke-linejoin:miter;stroke-miterlimit:4;stroke-opacity:1;stroke-dasharray:1.06299216000000007, 1.06299216000000007;stroke-dashoffset:0" />
        </g>
        <path
           style="fill:none;stroke:#000000;stroke-width:0.35433069;stroke-linecap:butt;stroke-linejoin:miter;stroke-miterlimit:4;stroke-opacity:1;stroke-dasharray:none"
           d="m 320.53125,748.65625 319.96875,0 0,-97.09375 -263.96875,0 z"
           id="path3869"
           inkscape:connector-curvature="0"
           sodipodi:nodetypes="ccccc" />
      </g>
      <path
         sodipodi:nodetypes="cc"
         inkscape:connector-curvature="0"
         id="path2996"
         d="m 640.49589,660.41259 -267.14013,0"
         style="fill:none;stroke:#000000;stroke-width:0.35433069;stroke-linecap:butt;stroke-linejoin:miter;stroke-miterlimit:4;stroke-opacity:1;stroke-dasharray:1.06299216, 1.06299216;stroke-dashoffset:0" />
    </g>
  </g>
</svg>
