<?xml version="1.0" encoding="UTF-8" standalone="no"?>
<!-- Created with Inkscape (http://www.inkscape.org/) -->

<svg
   xmlns:dc="http://purl.org/dc/elements/1.1/"
   xmlns:cc="http://creativecommons.org/ns#"
   xmlns:rdf="http://www.w3.org/1999/02/22-rdf-syntax-ns#"
   xmlns:svg="http://www.w3.org/2000/svg"
   xmlns="http://www.w3.org/2000/svg"
   xmlns:sodipodi="http://sodipodi.sourceforge.net/DTD/sodipodi-0.dtd"
   xmlns:inkscape="http://www.inkscape.org/namespaces/inkscape"
   width="16cm"
   height="6cm"
   id="svg2"
   version="1.1"
   inkscape:version="0.92.3 (2405546, 2018-03-11)"
   sodipodi:docname="x1.svg">
  <defs
     id="defs4" />
  <sodipodi:namedview
     id="base"
     pagecolor="#ffffff"
     bordercolor="#666666"
     borderopacity="1.0"
     inkscape:pageopacity="0.0"
     inkscape:pageshadow="2"
     inkscape:zoom="0.5063368"
     inkscape:cx="227.79171"
     inkscape:cy="543.63076"
     inkscape:document-units="mm"
     inkscape:current-layer="layer1"
     showgrid="false"
     showguides="true"
     inkscape:guide-bbox="true"
     inkscape:window-width="1229"
     inkscape:window-height="745"
     inkscape:window-x="51"
     inkscape:window-y="510"
     inkscape:window-maximized="1"
     units="cm"
     objecttolerance="20"
     guidetolerance="20"
     gridtolerance="10"
     inkscape:snap-global="true"
     inkscape:snap-page="true"
     inkscape:snap-center="true"
     inkscape:snap-object-midpoints="true"
     inkscape:object-nodes="true"
     inkscape:snap-smooth-nodes="true"
     inkscape:object-paths="true"
     inkscape:snap-nodes="true"
     inkscape:snap-bbox="true"
     inkscape:bbox-nodes="true"
     inkscape:snap-intersection-paths="true"
     inkscape:bbox-paths="true"
     inkscape:snap-bbox-edge-midpoints="true" />
  <metadata
     id="metadata7">
    <rdf:RDF>
      <cc:Work
         rdf:about="">
        <dc:format>image/svg+xml</dc:format>
        <dc:type
           rdf:resource="http://purl.org/dc/dcmitype/StillImage" />
        <dc:title></dc:title>
      </cc:Work>
    </rdf:RDF>
  </metadata>
  <g
     inkscape:label="Layer 1"
     inkscape:groupmode="layer"
     id="layer1"
     transform="translate(0,-825.59056)">
    <g
       id="g41"
       transform="translate(-72.565269,190.1542)">
      <g
         transform="translate(2)"
         inkscape:transform-center-y="35.974051"
         inkscape:transform-center-x="-130.17717"
         id="g2998">
        <path
           style="fill:none;stroke:#000000;stroke-width:0.35433069;stroke-linecap:butt;stroke-linejoin:miter;stroke-miterlimit:4;stroke-dasharray:none;stroke-opacity:1"
           d="M 373.34375,651.5625 H 115.32742 v 97.09375 h 202.01633 z"
           id="path3867"
           inkscape:connector-curvature="0"
           inkscape:transform-center-x="-126.26907"
           inkscape:transform-center-y="41.416254"
           sodipodi:nodetypes="ccccc" />
        <path
           inkscape:connector-curvature="0"
           id="path3854"
           d="M 366.49589,660.41259 H 115.35576"
           style="fill:none;stroke:#000000;stroke-width:0.35433069;stroke-linecap:butt;stroke-linejoin:miter;stroke-miterlimit:4;stroke-dasharray:1.06299216, 1.06299216;stroke-dashoffset:0;stroke-opacity:1"
           sodipodi:nodetypes="cc" />
      </g>
      <rect
         style="fill:none;stroke:#000000;stroke-width:0.35433069;stroke-linecap:butt;stroke-linejoin:miter;stroke-miterlimit:4;stroke-dasharray:none;stroke-opacity:1"
         id="rect2996"
         width="4.9606299"
         height="194.52756"
         x="104.04001"
         y="651.55841" />
      <rect
         y="651.55841"
         x="640.85431"
         height="194.52756"
         width="4.9606299"
         id="rect2995"
         style="fill:none;stroke:#000000;stroke-width:0.35433069;stroke-linecap:butt;stroke-linejoin:miter;stroke-miterlimit:4;stroke-dasharray:none;stroke-opacity:1" />
      <path
         sodipodi:nodetypes="cccc"
         inkscape:connector-curvature="0"
         id="path3811"
         d="m 393.05528,757.17631 c 6.18861,0 12.37721,0 18.56582,0 m -9.27048,-10.08648 v 19.34833"
         style="fill:none;stroke:#ff0000;stroke-width:1;stroke-linecap:butt;stroke-linejoin:miter;stroke-miterlimit:4;stroke-dasharray:2, 1, 0.5, 1;stroke-dashoffset:0;stroke-opacity:1" />
      <circle
         r="3.0357144"
         cy="725.93359"
         cx="425.17856"
         transform="translate(-22.827938,31.242716)"
         id="path3000"
         style="fill:none;stroke:#ff0000;stroke-width:0.99921262;stroke-miterlimit:4;stroke-dasharray:none;stroke-dashoffset:0" />
      <g
         style="stroke:#999999"
         inkscape:transform-center-y="-33.679871"
         inkscape:transform-center-x="94.372163"
         id="g3808">
        <path
           style="fill:none;stroke:#999999;stroke-width:0.64638782;stroke-miterlimit:4;stroke-dashoffset:0"
           d="m 402.38455,780.47318 c 12.86671,0 23.28125,-10.44579 23.28125,-23.3125 0,-12.86672 -10.41454,-23.28125 -23.28125,-23.28125 l -89.21874,8.84375 c -7.97443,0 -14.4375,6.46307 -14.4375,14.4375 0,7.97442 6.46307,14.4375 14.4375,14.4375 z m -0.34375,-12.40625 c -6.01751,0 -10.875,-4.88874 -10.875,-10.90625 0,-6.01751 4.85749,-10.875 10.875,-10.875 6.01751,0 10.90625,4.85749 10.90625,10.875 0,6.01751 -4.88874,10.90625 -10.90625,10.90625 z m -39.8125,-8.84375 c -1.12522,0 -2.0625,-0.93727 -2.0625,-2.0625 0,-1.12523 0.93728,-2.03125 2.0625,-2.03125 1.12523,0 2.03125,0.90602 2.03125,2.03125 0,1.12523 -0.90602,2.0625 -2.03125,2.0625 z m -9.75,0 c -1.12522,0 -2.03125,-0.93727 -2.03125,-2.0625 0,-1.12523 0.90603,-2.03125 2.03125,-2.03125 1.12523,0 2.03125,0.90602 2.03125,2.03125 0,1.12523 -0.90602,2.0625 -2.03125,2.0625 z m -9.75,0 c -1.12522,0 -2.03125,-0.93727 -2.03125,-2.0625 0,-1.12523 0.90603,-2.03125 2.03125,-2.03125 1.12523,0 2.03125,0.90602 2.03125,2.03125 0,1.12523 -0.90602,2.0625 -2.03125,2.0625 z m -9.74999,0 c -1.12523,0 -2.03125,-0.93727 -2.03125,-2.0625 0,-1.12523 0.90602,-2.03125 2.03125,-2.03125 1.12522,0 2.03125,0.90602 2.03125,2.03125 0,1.12523 -0.90603,2.0625 -2.03125,2.0625 z m -9.75,0 c -1.12523,0 -2.03125,-0.93727 -2.03125,-2.0625 0,-1.12523 0.90602,-2.03125 2.03125,-2.03125 1.12523,0 2.0625,0.90602 2.0625,2.03125 0,1.12523 -0.93727,2.0625 -2.0625,2.0625 z m -9.71875,0 c -1.12523,0 -2.0625,-0.93727 -2.0625,-2.0625 0,-1.12523 0.93727,-2.03125 2.0625,-2.03125 1.12523,0 2.03125,0.90602 2.03125,2.03125 0,1.12523 -0.90602,2.0625 -2.03125,2.0625 z"
           id="path3773"
           inkscape:connector-curvature="0"
           inkscape:transform-center-x="40.153566" />
        <path
           inkscape:transform-center-y="-71.384358"
           inkscape:transform-center-x="90.979316"
           sodipodi:nodetypes="ccccccc"
           inkscape:connector-curvature="0"
           id="path2993-6"
           d="M 373.53011,774.26151 H 237.14286 c -98.66381,0 -24.26292,-107.88784 60.90104,-107.88784 l 6.99322,18.80032 c -44.44742,0 -65.34895,54.5846 -18.91673,54.5846 h 87.40972 z"
           style="fill:none;stroke:#999999;stroke-width:0.35433072;stroke-linecap:butt;stroke-linejoin:miter;stroke-miterlimit:4;stroke-dasharray:none;stroke-dashoffset:0;stroke-opacity:1" />
      </g>
      <g
         id="g3002">
        <g
           id="g2997">
          <g
             style="fill:none"
             transform="translate(14.351288,251.31876)"
             id="g3846">
            <rect
               style="fill:none;fill-rule:evenodd;stroke:#000000;stroke-width:0.35433072;stroke-linecap:butt;stroke-linejoin:miter;stroke-miterlimit:4;stroke-dasharray:none;stroke-opacity:1"
               id="rect2985"
               width="531.14172"
               height="97.086617"
               x="95.003677"
               y="497.67645" />
            <path
               style="fill:none;stroke:#000000;stroke-width:0.35433072;stroke-linecap:butt;stroke-linejoin:miter;stroke-miterlimit:4;stroke-dasharray:1.06299216, 1.06299216;stroke-dashoffset:0;stroke-opacity:1"
               d="M 95.004365,585.90481 H 626.14472"
               id="path3040"
               inkscape:connector-curvature="0" />
          </g>
          <path
             sodipodi:nodetypes="ccccc"
             inkscape:connector-curvature="0"
             id="path3869"
             d="M 320.53125,748.65625 H 640.5 V 651.5625 H 376.53125 Z"
             style="fill:none;stroke:#000000;stroke-width:0.35433069;stroke-linecap:butt;stroke-linejoin:miter;stroke-miterlimit:4;stroke-dasharray:none;stroke-opacity:1" />
        </g>
        <path
           style="fill:none;stroke:#000000;stroke-width:0.35433069;stroke-linecap:butt;stroke-linejoin:miter;stroke-miterlimit:4;stroke-dasharray:1.06299216, 1.06299216;stroke-dashoffset:0;stroke-opacity:1"
           d="M 640.49589,660.41259 H 373.35576"
           id="path2996"
           inkscape:connector-curvature="0"
           sodipodi:nodetypes="cc" />
      </g>
    </g>
  </g>
</svg>
